<?xml version="1.0" encoding="iso-8859-1"?>
<!-- Generator: Adobe Illustrator 19.0.0, SVG Export Plug-In . SVG Version: 6.00 Build 0)  -->
<svg version="1.1" id="Capa_1" xmlns="http://www.w3.org/2000/svg" xmlns:xlink="http://www.w3.org/1999/xlink" x="0px" y="0px"
	 viewBox="0 0 447.216 447.216" style="enable-background:new 0 0 447.216 447.216;" xml:space="preserve">
<polygon style="fill:#4DCFE0;" points="327.576,253.91 223.608,431.543 119.641,253.91 223.608,253.91 "/>
<path style="fill:#3A2C51;" d="M341.159,246.073c-2.612-4.702-7.837-7.837-13.584-7.837h-88.294V15.673
	C239.282,6.792,232.49,0,223.608,0s-15.673,6.792-15.673,15.673v222.563h-88.294c-5.747,0-10.971,3.135-13.584,7.837
	c-2.612,4.702-2.612,10.971,0,15.673L210.025,439.38c2.612,4.702,7.837,7.837,13.584,7.837s10.971-3.135,13.584-7.837
	l103.967-177.633C343.771,257.045,343.771,250.776,341.159,246.073z M223.608,400.718l-76.8-131.135h153.078L223.608,400.718z"/>
</svg>
